<svg xmlns="http://www.w3.org/2000/svg" version="1.0" width="500.000000pt" height="500.000000pt" viewBox="0 0 500.000000 500.000000" preserveAspectRatio="xMidYMid meet">

<g transform="translate(0.000000,500.000000) scale(0.100000,-0.100000)" fill="#f26101" stroke="none">
<path d="M1157 3324 c-10 -11 -8 -1017 2 -1033 7 -11 46 -12 207 -8 110 3 215 8 234 11 56 10 101 27 95 37 -4 5 0 6 8 4 20 -8 100 74 94 97 -3 10 -1 16 3 13 27 -17 46 189 20 220 -6 8 -9 19 -6 24 4 5 1 13 -5 17 -8 5 -9 3 -4 -6 5 -9 4 -11 -4 -6 -6 4 -9 12 -6 17 4 5 -1 19 -9 31 -9 12 -16 19 -16 15 0 -4 -10 2 -22 13 -13 11 -33 23 -45 26 -35 9 -28 27 23 63 31 21 44 37 40 47 -3 8 -2 13 3 10 19 -12 43 48 47 117 5 90 -14 152 -64 201 -38 39 -117 80 -138 72 -7 -3 -14 0 -17 7 -4 13 -427 23 -440 11z m228 -144 c3 -5 34 -8 70 -7 35 1 61 5 58 10 -3 5 13 -3 34 -17 47 -31 64 -63 70 -128 3 -34 -2 -62 -16 -93 -26 -60 -65 -77 -164 -73 l-72 3 -3 148 c-2 114 0 147 10 147 9 0 8 3 -2 10 -9 6 -10 10 -3 10 6 0 14 -4 18 -10z m162 -436 c50 -8 75 -52 80 -138 5 -81 -14 -132 -57 -153 -15 -7 -64 -13 -117 -13 l-93 0 0 153 c0 85 2 156 4 158 6 5 138 1 183 -7z"/>
<path d="M3117 3302 c-3 -4 -4 -237 -4 -517 l2 -510 115 0 115 0 2 165 c1 91 2 174 3 185 0 19 15 22 72 16 3 -1 12 -17 18 -36 6 -19 15 -33 20 -30 4 3 6 -5 2 -17 -4 -16 -2 -19 8 -13 9 5 11 4 6 -3 -4 -7 3 -33 15 -59 12 -27 24 -56 25 -66 2 -10 17 -46 34 -81 l29 -63 91 -2 c63 -1 97 2 108 11 10 8 13 9 9 1 -5 -8 0 -11 13 -10 23 2 25 12 6 48 -7 14 -16 38 -20 53 -4 16 -11 24 -18 20 -6 -4 -8 -3 -4 4 6 9 -38 132 -63 179 -14 24 -38 84 -45 108 -4 15 3 27 29 48 50 40 97 113 98 153 1 19 4 34 9 34 14 0 7 124 -9 148 -8 13 -12 26 -9 30 3 3 6 -1 6 -8 0 -7 3 -11 6 -7 6 5 -21 71 -39 95 -8 10 -13 10 -26 0 -14 -12 -15 -11 -2 5 20 25 -1 46 -25 26 -10 -8 -15 -9 -11 -2 12 20 -4 43 -44 64 -22 11 -39 18 -39 15 0 -2 -21 2 -47 10 -50 15 -428 21 -436 6z m460 -28 c-3 -3 -12 -4 -19 -1 -8 3 -5 6 6 6 11 1 17 -2 13 -5z m-58 -168 c7 -5 19 -23 26 -40 15 -34 22 -146 12 -163 -4 -6 -6 -17 -4 -25 2 -7 2 -10 0 -6 -3 4 -14 -4 -26 -17 -19 -21 -31 -25 -100 -26 l-78 -2 0 131 c0 73 0 140 1 150 0 15 9 16 77 12 43 -3 84 -9 92 -14z m-179 -296 c0 -5 -2 -10 -4 -10 -3 0 -8 5 -11 10 -3 6 -1 10 4 10 6 0 11 -4 11 -10z"/>
<path d="M1895 3038 c-4 -12 0 -570 4 -611 1 -9 5 -16 9 -13 4 2 8 -7 8 -21 1 -13 10 -31 20 -38 11 -8 15 -15 10 -15 -14 0 25 -40 40 -40 7 0 14 -5 16 -11 2 -7 31 -13 65 -15 49 -2 71 2 105 20 27 14 42 30 42 40 -1 9 3 15 9 13 7 -2 19 5 28 16 20 26 39 14 39 -23 0 -56 6 -60 89 -60 47 0 82 5 89 12 16 16 17 554 1 595 -6 15 -12 37 -13 48 -4 28 -15 66 -28 93 -10 19 -19 22 -74 22 -45 0 -63 -4 -68 -15 -3 -8 -6 -145 -6 -305 -1 -196 -5 -288 -12 -284 -6 4 -14 1 -18 -6 -11 -18 -100 -30 -121 -17 -40 25 -44 53 -47 345 l-3 282 -90 0 c-63 0 -91 -4 -94 -12z m532 -130 c-3 -8 -6 -5 -6 6 -1 11 2 17 5 13 3 -3 4 -12 1 -19z m-117 -459 c0 -6 -4 -7 -10 -4 -5 3 -10 11 -10 16 0 6 5 7 10 4 6 -3 10 -11 10 -16z m-15 -37 c-3 -3 -11 0 -18 7 -9 10 -8 11 6 5 10 -3 15 -9 12 -12z m12 -44 c-3 -8 -6 -5 -6 6 -1 11 2 17 5 13 3 -3 4 -12 1 -19z m-323 -40 c-3 -4 -9 -8 -15 -8 -5 0 -9 4 -9 8 0 5 7 9 15 9 8 0 12 -4 9 -9z"/>
<path d="M2485 3042 c-2 -3 1 -14 7 -26 6 -11 10 -21 8 -21 -5 0 20 -95 31 -120 5 -11 11 -31 14 -45 15 -83 49 -189 57 -178 4 8 5 -1 2 -19 -4 -22 -3 -33 5 -33 7 0 10 -4 7 -8 -4 -7 16 -93 31 -132 4 -8 7 -18 7 -22 1 -3 4 -9 8 -13 4 -4 4 -13 1 -21 -3 -8 0 -14 7 -14 6 0 9 -4 6 -9 -3 -5 1 -31 9 -59 16 -52 18 -142 3 -142 -4 0 -8 -8 -8 -18 0 -22 -19 -42 -39 -42 -10 0 -8 6 7 19 12 10 22 20 22 23 0 2 -59 5 -131 6 -115 1 -130 0 -125 -14 3 -9 9 -34 12 -57 13 -80 5 -77 191 -77 155 0 167 1 184 21 10 11 15 28 12 36 -4 11 -2 14 5 9 7 -4 13 -2 13 3 2 17 3 20 38 128 18 57 29 108 25 114 -4 8 -3 9 4 5 8 -4 12 0 12 11 0 10 9 46 20 80 11 35 17 70 13 80 -4 9 -2 14 3 10 12 -7 47 119 38 135 -4 6 -3 8 3 5 5 -3 16 17 23 46 18 67 16 61 39 142 23 79 27 175 9 193 -7 7 -40 12 -80 12 -56 0 -69 -3 -78 -19 -13 -26 -13 -34 3 -25 6 4 4 -2 -5 -12 -10 -11 -19 -34 -22 -50 -2 -16 -7 -37 -11 -47 -4 -9 -5 -26 -2 -37 3 -11 2 -18 -2 -15 -5 2 -19 -43 -31 -101 -13 -59 -32 -116 -42 -128 -10 -11 -18 -16 -17 -11 1 6 0 15 -1 20 -1 6 -3 15 -4 20 -10 58 -19 102 -25 110 -3 6 -6 19 -6 30 -1 48 -18 135 -27 135 -6 0 -8 6 -5 14 7 19 -12 99 -25 107 -12 8 -186 8 -193 1z m522 -274 c-3 -8 -6 -5 -6 6 -1 11 2 17 5 13 3 -3 4 -12 1 -19z m-133 -84 c3 -8 2 -12 -4 -9 -6 3 -10 10 -10 16 0 14 7 11 14 -7z"/>
<path d="M1154 2155 c-3 -7 -4 -39 -2 -71 3 -57 4 -59 32 -62 36 -4 78 6 72 17 -3 5 3 35 14 66 11 32 20 60 20 62 0 10 -132 -1 -136 -12z"/>
<path d="M1429 2144 c-20 -12 -41 -35 -46 -51 -12 -34 -5 -96 10 -86 6 3 7 1 3 -5 -16 -26 70 -84 109 -73 6 2 19 5 29 7 29 5 64 43 76 80 16 47 -2 99 -40 116 -16 7 -26 16 -24 20 3 4 -1 8 -8 9 -7 0 -26 2 -43 3 -18 2 -44 -6 -66 -20z m66 -2 c-3 -3 -11 0 -18 7 -9 10 -8 11 6 5 10 -3 15 -9 12 -12z m-91 -58 c3 -8 2 -12 -4 -9 -6 3 -10 10 -10 16 0 14 7 11 14 -7z m133 -106 c-3 -8 -6 -5 -6 6 -1 11 2 17 5 13 3 -3 4 -12 1 -19z m-103 -14 c3 -8 2 -12 -4 -9 -6 3 -10 10 -10 16 0 14 7 11 14 -7z"/>
<path d="M1705 2155 c3 -11 11 -41 17 -67 6 -26 15 -45 20 -42 4 3 5 -2 2 -11 -6 -14 7 -15 107 -13 l114 3 6 40 c3 22 9 54 13 71 l7 31 -130 2 c-90 1 -131 -1 -136 -9 -6 -9 -10 -9 -17 1 -7 10 -8 8 -3 -6z"/>
<path d="M2142 2150 c-20 -12 -30 -25 -26 -32 4 -7 3 -8 -4 -4 -25 16 -42 -77 -21 -116 9 -17 13 -18 21 -7 7 10 8 8 3 -7 -5 -18 2 -25 38 -43 40 -19 47 -20 83 -8 104 36 112 171 14 222 -39 20 -69 19 -108 -5z"/>
</g>
</svg>